<?xml version="1.0" standalone="yes"?>
<svg xmlns="http://www.w3.org/2000/svg" width="462" height="469">
<path style="fill:#050705; stroke:none;" d="M0 0L0 128L4.80941 145L0.054784 159L0 262L0 469L33 469L46 467C60.5251 473.155 83.3105 469 99 469C98.9468 462.489 97.7894 456.397 97.0239 450C95.3161 435.728 100.172 425.974 115.945 434.684C119.801 436.813 121.08 441.264 125.044 443.276C130.3 445.944 136.704 444.578 141.957 447.313C149.197 451.083 150.982 455.352 160 452L160 450C153.969 446.458 150.031 440.233 143.985 436.819C139.322 434.185 133.731 435.566 129.108 432.633C125.844 430.562 124.728 426.536 120.945 425.228C112.779 422.405 103.5 418.961 95 417.424C89.2812 416.39 81.735 416.322 77.5525 411.649C70.8569 404.168 74.3434 391.421 75.1829 383.001C76.9095 365.682 74.0622 347.305 77.8495 330.09C78.8968 325.329 83.9111 320.59 86 316L88 316L91 357C100.444 356.645 103.712 361.618 112 363.682C120.506 365.8 128.388 363.133 136 360C130.95 352.165 121.98 357.301 125 345C129.713 345.921 133.326 343.009 138 343.24C146.58 343.663 155.425 346.097 164 345.871C175.382 345.572 186.684 341.378 198 340.166C208.881 339 221.357 341.587 231.941 338.682C237.954 337.032 236.128 330.373 244 329.921C249.296 329.616 257.223 330.271 261.985 327.821C265.701 325.909 267.473 321.874 271.104 319.823C277.907 315.979 285.202 313.728 281.407 304C279.739 299.724 277.64 293.367 273.941 290.513C266.747 284.963 256.319 288.697 249.04 284.142C240.601 278.86 243.168 268.505 237.272 262.6C235.178 260.502 231.531 260.606 229 259.157C223.209 255.839 217.212 250.571 212.174 246.164C207.909 242.433 207.308 236.334 203.505 232.302C197.342 225.77 191.805 224.127 190 214C179.885 212.728 171.401 219.006 170.187 230.039C169.476 236.492 172.854 242.405 168.481 248.319C163.008 255.723 145.989 253.261 138 251.517C130.363 249.849 128.557 243.186 123.367 238.6C121.099 236.596 117.672 236.57 115.093 235.031C105.333 229.206 93.7349 214.348 107.29 205.652C113.242 201.834 122.581 204.261 129 205.385C142.916 207.822 158.489 205.793 172 210C172.146 198.751 178.533 170.997 160 174L160 166C156.073 163.406 151.73 158.086 146.91 157.469C136.506 156.138 119.552 166.7 114 153L100 164C99.9076 161.623 97.3768 146.117 92.1644 152.622C89.4756 155.977 92.0384 161.209 91.4005 164.985C90.2416 171.845 84.7048 174.159 87 182C96.5089 182.689 95.1388 192.053 95 199L94 199L93 196L90 198C84.3779 192.931 77.7131 185.868 71.7269 181.835C66.9022 178.585 61.199 181.479 58.6181 173.996C56.6542 168.303 62.0107 163.179 63.3866 158C64.8003 152.679 63.1681 141.408 62 136L67 136C67.0507 150.338 81.7439 142.004 91 147L116 118L79 115.25L67.9105 109.184L48 113L42.9051 102.999L36 81C36.8068 76.8137 37.1789 67.2558 44.0008 68.8572C53.2883 71.0374 53.6036 81.731 61.0193 84.8557C75.966 91.1537 92.6989 99.2274 109 100.699C119.007 101.602 131.651 99.3035 142 98.9568C202.145 96.9419 263.255 96.4804 323 102.17C329.988 102.835 342.633 102.963 347.123 109.379C350.165 113.726 334.621 128.254 351.945 125.837C357.215 125.102 359.431 113.81 363.339 109.884C368.331 104.868 375.517 103.003 380.985 98.6111C388.88 92.2697 399.776 77.985 404 69C410.888 74.5639 407.748 91.4609 405.348 99C403.217 105.695 395.019 108.846 393.318 115.093C390.967 123.731 396.329 130.946 395.923 138.989C395.668 144.037 390.896 146.979 390.228 152C389.025 161.052 392 172.547 392 182C392 195.83 392.425 209.413 389.483 223C385.859 239.739 379.363 254.238 384.543 271.995C387.035 280.536 398.909 289.252 404.064 297.039C415.654 314.546 427.683 338.627 431.852 359.001C435.439 376.53 432.574 397.044 433.015 415C433.192 422.22 436.812 428.842 436.821 436C436.837 448.22 434.535 456.85 438 469L442 469L444 456L445 456L446 469L462 469L462 429C449.45 430.382 452.961 441.181 445 448C444.196 443.128 442.533 426.544 447.152 423.812C450.425 421.877 458.107 424 462 424L462 144L454 150L452.7 178L446 200C435.799 198.379 436.754 184.969 435.718 177C433.755 161.891 429.464 147.348 433.421 132C435.648 123.364 443.122 115.512 452.996 117.228C456.461 117.831 459.033 120.32 462 122L462 47C462 41.9586 464.587 25.1972 459 24L462 11C454.596 12.2574 457.718 18.489 458 24L453 23C443.226 34.1386 433.314 13.7162 427 18L410.005 11.8765L401 4L400 4L390 3C388.814 -2.53683 372.95 0 368 0L298 0L0 0z"/>
<path style="fill:#343733; stroke:none;" d="M390 3L400 4L401 4L427 18C433.178 16.3308 446.258 35.1068 453 23L458 24C457.878 18.6078 455.582 13.0007 462 11L462 5C451.834 8.13611 451 13.1492 451 23L444 22C442.351 11.7166 429.498 5.6759 420 5.5C417.896 5.46103 416.047 7.37006 414 6.94446C410.467 6.20987 409.81 1.61188 406.75 0.333313C402.922 -1.2663 390.935 -1.36456 390 3z"/>
<path style="fill:#626561; stroke:none;" d="M408 0C411.37 9.87747 421.212 5.96091 429.715 7.99615C436.002 9.5011 441.722 16.2325 444 22L451 23L453.009 10.2994L462 2C445.643 -3.10385 425.079 0 408 0z"/>
<path style="fill:#343733; stroke:none;" d="M458 0L458 1L462 2L458 0M448 16L448 20L449 20L448 16M460 20L459 24L462 20L460 20M456 36L457 37L456 36M36 81L42.5741 102.999L48 113L67.6752 109.454L78.8302 115.621L116 118L91 147C82.5686 140.523 67.1686 150.265 67 136L62 136C62.6007 141.514 64.6411 151.952 63.3819 157C61.8856 162.999 56.1169 168.333 58.6042 174.985C61.1721 181.854 66.6452 178.926 71.1528 181.926C77.6471 186.248 83.0632 193.378 90 198L93 196L94 199L95 199C95.3043 191.895 97.1013 182.015 87 182C85.2229 174.244 90.9224 171.82 91.6829 164.985C92.0856 161.366 89.3818 155.641 92.7029 152.737C97.841 148.244 99.7246 161.601 100 164L114 153C117.826 167.192 137.321 155.961 146.91 157.835C151.797 158.79 155.49 163.931 160 166L160 174C178.613 172.649 171.113 198.287 172 210C165.238 207.136 158.171 208.472 151 207.945C141.425 207.242 131.794 204.873 122 204.086C116.319 203.629 109.353 202.625 104.863 206.943C89.3442 221.865 114.271 231.784 122.61 238.6C128.331 243.275 129.567 250.335 138 251.695C145.742 252.944 163.025 256.024 168.481 249.072C172.814 243.551 169.974 237.23 170.317 231.015C170.921 220.079 180.207 213.255 190 214C191.033 224.086 196.358 226.161 202.726 232.302C206.72 236.155 207.316 242.382 211.379 246.164C216.166 250.62 222.34 255.915 228 259.157C230.659 260.679 234.238 260.566 236.57 262.6C242.767 268.002 240.071 278.941 248.093 284.142C254.898 288.554 264.832 285.422 271.995 289.854C277.001 292.951 279.291 299.639 281.357 304.91C284.783 313.651 277.227 316.066 271.104 319.345C267.102 321.488 265.038 325.774 260.996 327.821C256.3 330.199 249.179 329.192 244 329.74C235.983 330.588 237.464 336.983 230.981 338.682C220.464 341.438 207.856 338.987 197 340.166C186.014 341.359 175.047 345.392 164 345.74C155.03 346.023 145.895 342.634 137 342.754C132.777 342.811 129.354 345.287 125 345C121.326 356.723 129.727 353.581 136 360C128.168 362.009 121.6 365.824 113 363.682C104.287 361.512 101.059 356.161 91 357C90.4864 344.217 93.0698 327.791 88 316L86 316C83.5171 319.883 78.8835 324.796 77.6535 329.17C72.9583 345.867 76.476 365.478 75.0332 382.576C74.3132 391.108 70.369 404.963 77.5247 412.362C81.5064 416.479 88.7351 416.473 94 417.424C102.32 418.928 113.258 422.154 120.945 425.564C124.847 427.295 126.065 431.805 130.044 433.633C135.045 435.93 140.251 434.694 144.961 438.108C150.234 441.931 153.818 447.559 160 450L160 452C150.017 454.723 149.247 449.344 140.985 446.533C135.444 444.648 129.085 445.707 124.108 442.182C120.506 439.631 119.323 435.54 114.981 433.815C109.565 431.662 98.2751 428.339 95.821 436.174C93.013 445.14 98.8039 459.498 99 469L105 469C104.967 465.01 101.065 449.846 107.198 448.921C114.387 447.837 110.176 465.395 110 469L147 469C143.858 462.774 140.287 466.234 135 464.334C129.333 462.297 123.794 458.379 118 456L118 450C126.718 447.207 138.5 448.27 144 457C150.095 455.997 149.899 460.086 154.144 463.157C159.521 467.049 165.488 468.995 172 469L172 468C167.001 465.769 160.998 464.388 161 458L190 460L190 454C171.127 452.498 161.339 443.151 146 434.228C140.647 431.114 133.621 432.871 129.939 426.906C126.579 421.461 130.376 414.115 129 408L128 408C126.752 424.199 95.9393 416.843 87.0432 411.005C74.8474 403.003 79.0048 392.539 78.6219 381C78.2966 371.196 76.7088 360.717 78.6651 351C79.8715 345.008 79.1325 337.341 85 334C85.1549 341.504 84.7998 356.915 89.5139 362.89C93.0381 367.358 97.2934 365.913 102.015 367.349C114.047 371.009 127.823 374.225 140.961 372.725C148.106 371.908 159.187 361.134 156 354L177 355L176 351C182.098 349.121 187.733 345.662 194 344.289C205.94 341.674 217.938 342.706 230 341.956C236.201 341.57 239.439 336.619 245.015 334.765C250.483 332.946 256.464 334.594 262 332.576C278.285 326.642 294.659 307.445 281.522 290.554C274.126 281.046 262.629 287.604 254.039 282.272C244.369 276.27 247.07 266.103 240.567 259.727C236.483 255.722 228.908 254.929 224.093 251.279C215.874 245.047 213.472 236.72 207.185 229.418C200.078 221.164 193.606 218.345 192 206C188.286 205.923 180.259 206.514 177.607 203.593C173.436 198.997 179.046 183.574 183 196L184 196L185 184C180.845 181.553 179.921 176.927 176.505 173.754C173.245 170.725 168.531 170.204 165.015 167.574C159.894 163.744 156.833 157.042 150.999 154.183C142.026 149.785 128.963 158.515 119.109 154.397C115.698 152.972 115.584 149.307 113.289 146.88C109.954 143.354 104.847 139.574 108.606 134.129C112.597 128.348 118.212 124.327 122 118C110.917 115.361 99.0439 117.599 88 114.96C76.0055 112.093 67.4305 99.4161 54 108L53 108C46.2713 98.15 39.5393 86.6096 42 74L47 77L51 76C55.017 88.6047 69.0703 90.0387 80 94.4529C87.8776 97.6345 94.324 101.316 103 101.91C119.487 103.041 136.484 100.026 153 100C194.44 99.9335 235.696 101 277 101C286.29 101 294.86 103.24 304 103.91C316.824 104.85 336.691 101.25 344 115C330.938 120.938 344.177 132.327 354 129.372C361.547 127.101 361.493 119.769 366.098 114.914C377.249 103.16 392.665 94.5272 402 81L403 81C403.482 87.1121 405.46 94.1538 402.558 99.9599C398.97 107.138 391.404 108.966 390.634 118C390.039 124.982 392.909 132.065 391.671 139C390.776 144.007 386.236 147.863 386.293 153C386.347 157.8 389.239 162.245 389.816 167C391.366 179.787 391.088 195.173 389.896 208C388.169 226.568 379.305 241.879 380.514 261C381.599 278.171 391.626 284.213 401.112 297.09C410.074 309.256 418.6 326.583 423.095 341C435.863 381.951 430.626 426.252 434 469L438 469C435.825 456.752 437.452 447.187 436.896 435C436.614 428.817 433.786 423.134 433.171 417C431.979 405.125 433.027 392.922 432.184 381C431.674 373.781 433.528 366.236 432.205 359.001C431.512 355.21 428.882 352.459 427.688 348.91C421.61 330.841 415.058 312.267 404.064 296.09C398.809 288.357 387.031 279.617 384.543 270.999C379.402 253.191 386.682 239.777 389.678 223C392.528 207.041 392 191.183 392 175C392 167.91 389.198 158.709 390.434 152C391.349 147.031 395.834 144.25 395.976 138.989C396.189 131.136 391.139 124.32 393.318 116.04C395.193 108.915 404.23 106.118 405.805 98C407.198 90.8227 411.672 73.3457 404 69C397.425 78.2663 389.651 90.3447 380.985 97.7909C375.685 102.346 368.322 104.196 363.339 109.053C359.074 113.209 357.024 125.328 350.981 125.758C347.704 125.991 341.64 123.477 343.255 119.219C345.358 113.677 353.137 110.283 342.981 105.729C328.288 99.1411 305.893 100.87 290 99.1736C244.874 94.3568 196.408 96.902 151 98.0146C137.365 98.3488 121.324 101.922 108 100.405C94.7264 98.8935 83.9686 92.8109 71.8302 87.7492C68.0459 86.1712 63.5744 86.0947 60.0579 83.9105C53.5701 79.8808 52.8731 68.8511 43.0787 68.3611C36.515 68.0328 36.2765 76.4944 36 81z"/>
<path style="fill:#626561; stroke:none;" d="M42 74C38.8919 85.3046 45.3595 99.9927 53 108L54 108C67.2868 101.985 71.7997 109.813 83.0039 113.771C90.1863 116.308 97.5031 116 105 116L105 115C91.1356 114.962 84.7698 108.807 72.9992 103.684C60.436 98.2174 52.5703 101.762 48 86C53.5535 85.8069 58.7928 89.5365 64 91.4136C78.047 96.4771 91.8807 103.951 107 103.999C126.182 104.061 145.714 101.487 165 101.015C199.428 100.171 233.753 102.589 268 102.996C280.651 103.147 292.479 104.906 305 105.816C318.872 106.824 328.611 105.293 340 115C333.865 116.844 329.127 124.06 336.19 128.583C341.617 132.059 348.292 130.946 353.857 133.563C360.731 136.797 366.164 144.962 372.054 149.683C375.191 152.198 379.164 151.899 381.817 155.148C389.435 164.479 388 175.757 388 187C388 198.705 387.984 209.553 385.483 221C381.555 238.98 374.112 257.117 381.133 276C384.942 286.245 394.852 292.383 400.957 301.001C411.302 315.605 418.526 333.865 422.684 351C423.904 356.027 426.897 359.643 426.995 365C427.178 374.922 429.529 384.225 429.961 394C430.358 402.995 428.48 412.125 429.091 421C429.52 427.226 432.232 432.621 431.961 439C431.605 447.373 425.779 462.77 434 469C433.484 456.988 434.622 444.944 433.957 433C433.672 427.882 431.188 423.167 431.179 418C431.134 390.842 431.932 364.565 422.752 339C417.694 324.911 410.207 308.12 401.112 296.171C393.577 286.271 382.282 279.382 381.076 266C380.365 258.113 379.65 247.767 381.299 240C383.522 229.532 388.87 220.028 389.896 209C391.146 195.555 391.441 179.403 389.816 166C389.285 161.623 386.508 157.405 386.553 153C386.601 148.326 390.837 144.627 391.671 140C392.986 132.697 390.251 125.352 390.954 118C391.776 109.418 399.052 107.683 402.558 100.907C405.567 95.0889 403.779 87.1635 403 81L402 81C390.826 92.0246 378.121 101.99 367.023 113.043C362.085 117.961 361.669 124.967 354.999 128.447C345.579 133.362 332.228 122.733 344 115C341.525 107.894 333.799 106.111 327 104.669C319.805 103.143 312.286 104.444 305 103.91C293.829 103.091 283.349 101 272 101C232.402 101 192.749 99.9847 153 100C136.592 100.006 119.33 103.391 103 101.83C87.9176 100.389 57.6703 90.0985 51 76L47 77L42 74z"/>
<path style="fill:#9d9f9c; stroke:none;" d="M48 86C51.2098 101.346 58.8553 98.6476 71 103.272C77.9973 105.937 82.5053 111.434 90 113.417C101.816 116.542 114.203 114.948 126 118C123.159 127.33 115.063 134.301 116.862 144.956C119.249 159.096 144.384 147.635 151 145C154.129 150.597 159.783 160.54 165.13 164.142C168.75 166.581 173.193 165.239 176.999 166.988C182.304 169.426 189.839 177.521 193.146 182.286C196.345 186.896 202.213 196.317 202.486 202C202.725 206.973 197.355 211.831 200.184 216.671C202.639 220.873 208.296 222.947 211.28 227.004C216.791 234.497 218.141 243.428 226.004 249.467C231.109 253.388 239.197 252.536 243.347 257.344C247.341 261.971 245.663 268.966 249.499 273.957C257.605 284.503 273.015 277.424 282.853 285.018C286.992 288.213 288.534 296.107 289.663 301C293.987 319.748 274.398 323.337 272 341C264.624 337.879 252.8 340.992 245.019 342.699C240.63 343.662 238.513 348.555 235 344L220 346C219.878 353.332 204.017 363.212 197 363.938C193.538 364.295 190.521 362.326 187 363.313C182.951 364.449 179.051 366.674 175 368L174 365C156.203 368.512 157.133 379.37 160 394L163 394C168.689 387.242 188.263 394.526 196 397L178.375 406.164L165 415L162 402L160 404C149.391 401.731 149.848 410.439 148.703 418.004C146.99 429.323 152.529 443.773 167 440C169.343 450.984 182.94 446.913 189.957 451.603C193.061 453.678 194.501 458.068 198.104 459.357C204.027 461.477 212.467 458.03 219 459.598C226.296 461.349 231.957 467.186 239.001 468.701C252.783 471.663 269.891 469 284 469C277.728 460.991 270.327 461.622 262.17 457.826C257.581 455.69 254.774 451.403 251.471 447.857C247.374 443.459 241.52 439.132 245 433C241.664 427.002 242.82 420.456 248 416L248 420L249 420L256 409C254.127 404.41 252.077 400.827 254 396L254 395C244.447 380.989 262.913 378.671 262 368L286 357C286.004 350.21 283.299 334.75 287.603 329.344C290.875 325.235 295.658 327.375 299.83 325.548C308.332 321.824 321.267 306.683 316.127 296.554C312.683 289.768 304.434 294.565 299.105 292.397C292.866 289.858 291.451 280.519 284.985 277.434C276.189 273.236 264.507 278.131 256.468 273.022C248.208 267.772 255.84 259.426 250.485 253.278C244.582 246.5 233.586 249.832 227.329 242.906C215.849 230.2 222.607 214.061 217.157 200.001C214.741 193.765 208.222 191.124 204.585 185.83C200.628 180.072 200.001 171.735 200 165L176 157L168 160C167.426 156.2 166.822 153.33 163 152C169.737 138.354 196.864 158.466 204.037 138.489C205.559 134.252 199.971 131.408 196.999 129.844C188.568 125.407 178.196 126.28 169 125.289C163.24 124.669 155.555 124.505 150.039 126.475C146.928 127.586 144.515 131.162 141.001 130.882C132.89 130.236 136.662 119.443 130.852 116.738C125.862 114.415 119.318 115.377 114 114.714C100.783 113.066 84.1445 109.196 75 99C80.6554 100.094 84.379 104.898 90.0039 105.786C107.27 108.514 126.661 104.799 144 104.039C183.894 102.292 224.184 102.008 264 104.911C276.912 105.853 290.147 107.393 303 107.961C310.72 108.302 318.748 106.875 325.991 110.248C335.545 114.697 320.276 123.359 328.318 130.272C333.367 134.613 342.905 135.513 349 138.157C357.9 142.02 361.177 148.691 368.209 154.348C373.789 158.837 380.949 159.29 384.977 166.259C388.128 171.712 386 182.831 386 189C386 195.796 386.884 203.305 385.625 210C381.873 229.947 372.221 245.683 376.514 267C378.256 275.652 381.048 283.719 386.688 290.7C389.784 294.532 394.294 296.689 396.926 301.003C408.256 319.577 417.462 339.081 423.454 360C425.229 366.195 423.729 373.609 424.04 380C424.321 385.775 426.704 391.188 426.961 397C427.31 404.9 425.088 412.283 425.079 420C425.071 426.685 429.788 432.35 428.785 439C428.177 443.036 425.218 445.503 423.914 449.17C421.808 455.088 422 462.773 422 469L432 469C430.388 457.031 432.328 446.875 431.985 435C431.834 429.803 429.359 425.166 429.105 420C427.782 393.103 428.859 368.078 421.363 342C417.294 327.841 409.01 310.785 400.216 299.015C392.059 288.097 381.507 281.476 379.428 267C376.406 245.948 384.698 229.982 388.197 210C390.339 197.764 388.657 181.48 387.957 169C387.254 156.474 379.572 155.577 372.054 148.856C366.698 144.067 361.074 136.828 354.701 133.563C348.678 130.477 340.784 132.378 335.383 127.351C329.983 122.324 335.079 117.191 340 115C331.248 104.41 318.274 106.093 306 105.741C295.245 105.432 284.898 103 274 103C237.793 103 201.391 100.571 165 101.004C145.393 101.237 125.413 104.43 106 103.985C91.8071 103.66 78.2423 96.187 65 91.4136C59.4941 89.4289 53.8758 85.0395 48 86M402 90C393.799 90.2685 389.586 98.2388 384.625 103.958C377.531 112.136 366.329 115.41 369 129.004C370.617 137.234 382.889 156.856 388.991 140.91C392.637 131.382 386.219 120.032 390.684 110.005C394.717 100.948 401.991 101.421 402 90z"/>
<path style="fill:#eef0ed; stroke:none;" d="M70.6667 99.3333L71.3333 99.6667L70.6667 99.3333M75 99C85.8431 117.263 113.72 109.742 129.941 116.738C136.508 119.571 132.57 130.494 141.001 131.319C144.968 131.708 147.505 127.699 151.015 126.475C155.732 124.829 162.053 125.103 167 125.258C176.201 125.548 187.683 125.482 196 129.844C198.726 131.274 204.28 133.839 203.712 137.69C200.606 158.767 167.112 138.151 163 152L168 160C171.511 160 175.146 160.987 176 157L200 165C200 172.023 200.343 180.726 204.585 186.714C208.546 192.304 215.416 194.972 217.493 202C221.565 215.78 216.053 232.03 227.329 243.811C233.365 250.117 243.633 247.063 249.718 253.278C255.648 259.335 247.646 268.555 256.468 273.517C264.371 277.962 275.47 273.417 283.996 277.434C290.506 280.5 292.118 289.75 298.213 292.397C303.604 294.737 313.001 289.98 316.052 297.34C320.22 307.392 307.656 322.18 298.91 325.417C295.163 326.805 290.584 325.209 287.603 328.573C282.782 334.014 286.001 350.068 286 357C277.238 358.092 268.91 362.769 262 368C261.09 377.382 243.005 383.06 254 395L254 396C251.091 400.181 253.721 404.951 256 409L249 420L248 420L248 416C242.316 419.237 241.367 427.813 245 433C240.108 438.097 246.89 443.97 250.745 447.857C259.896 457.082 271.924 462.811 284.039 468.066C294.582 472.64 313.541 469 325 469L422 469C422.001 462.883 422.333 455.978 424.044 450.09C425.227 446.016 428.456 443.483 428.895 439C429.57 432.101 425.161 426.756 425.18 420C425.202 411.987 427.324 404.218 426.961 396C426.704 390.188 424.321 384.775 424.04 379C423.729 372.609 425.229 365.195 423.454 359C417.476 338.131 408.317 318.503 396.926 300.015C394.306 295.762 389.688 293.694 386.688 289.826C381.117 282.647 378.285 274.793 376.514 266C372.362 245.386 381.997 230.287 385.625 211C387.001 203.686 386 195.427 386 188C386 182.021 388.176 170.661 384.977 165.455C381.004 158.991 374.534 158.488 369.104 154.348C361.977 148.913 358.862 142.003 350 138.157C343.696 135.422 333.263 134.448 328.318 129.57C321.328 122.675 335.562 114.973 327.937 110.709C320.658 106.639 311.946 108.312 304 107.961C290.949 107.384 277.067 106.092 264 104.83C224.137 100.982 182.974 102.289 143 104.039C126.288 104.771 108.73 107.562 92 105.895C85.5141 105.249 81.5332 99.71 75 99z"/>
<path style="fill:#343733; stroke:none;" d="M357 104L359 108L357 104z"/>
<path style="fill:#626561; stroke:none;" d="M107 116L107 117L120 117L107 116M120 117L120 118L122 119C116.797 122.984 105.416 133.975 107.654 140.981C108.785 144.524 111.902 145.484 113.869 148.298C115.616 150.798 115.782 153.706 119.109 154.686C128.587 157.479 142.947 149.968 150.999 154.757C156.313 157.917 159.206 163.873 164.04 167.574C167.581 170.285 172.292 170.84 175.726 173.754C179.469 176.93 180.104 182.265 185 184L184 196L183 196C179.826 181.62 172.551 199.605 177.603 204.358C180.319 206.912 188.415 205.971 192 206C192.867 219.066 200.346 221.508 207.185 230.225C213.209 237.903 215.736 245.804 224.093 251.971C228.949 255.553 236.52 256.245 240.566 260.497C246.708 266.952 243.865 276.392 253.09 282.272C261.732 287.782 273.103 281.241 280.906 290.554C296.322 308.953 272.846 332.581 254 333.91C244.521 334.579 239.565 340.253 231 341.772C211.312 345.265 195.114 342.47 176 351L177 355L156 354C157.516 359.66 154.476 361.817 150.71 365.624C141.151 375.287 126.921 372.382 114 371.617C110.223 371.394 107.344 369.009 104 367.565C100.093 365.877 95.6242 367.106 92.0548 364.491C84.7873 359.165 85.3582 342.343 85 334C78.7891 336.129 78.8912 347.228 78.1597 353C76.9919 362.214 78.2947 371.748 78.3912 381C78.5087 392.264 74.5915 404.411 87.0432 411.583C96.3593 416.948 127.446 424.703 128 408L129 408C129.91 414.281 126.258 422.229 129.938 427.811C133.338 432.968 140.163 431.415 145 434.228C160.495 443.242 170.763 453.172 190 454L190 460L161 458C160.038 463.455 164.469 465.334 169.001 467.126C178.529 470.892 189.39 469.985 197 463L201 464L201 469L237 469C225.569 455.863 212.69 463.115 199.043 459.226C194.578 457.954 193.364 452.288 188.985 450.603C181.298 447.645 170.444 449.583 167 440C149.726 442.779 142.914 420.253 150.647 407.343C152.979 403.451 158.253 403.682 162 402L165 415C171.415 413.265 173.818 409.152 179.209 406.164C185.751 402.539 191.439 404.367 196 397C189.325 394.128 166.988 386.773 163 394L160 394C158.409 379.106 156.212 369.798 174 365L175 368C179.592 366.853 184.293 363.798 188.83 363.205C198.727 361.913 205.286 363.329 213.454 355.208C216.992 351.691 220.748 351.713 220 346L235 344C238.135 349.448 241.44 343.647 246.005 342.895C254.359 341.519 263.899 338.495 272 341C276.078 323.186 294.707 319.007 289.417 299C288.311 294.819 287.083 287.939 283.686 285.018C273.686 276.42 258.16 284.587 249.499 272.985C245.851 268.097 247.441 260.835 243.347 256.573C239.357 252.417 231.773 253.105 227.001 249.467C218.616 243.075 217.179 233.908 211.28 226.015C208.36 222.108 202.33 220.114 200.234 215.815C198.143 211.527 202.913 206.547 202.721 202C202.468 195.985 196.571 186.25 193.146 181.428C189.986 176.98 182.975 169.301 177.995 166.988C174.167 165.211 169.755 166.509 166.054 164.142C159.878 160.193 155.683 150.647 151 145C144.206 146.829 119.342 159.27 117.012 144.409C115.407 134.177 124.259 127.311 126 118L120 117z"/>
<path style="fill:#343733; stroke:none;" d="M446 200L452.7 179L454 150C461.048 148.687 460.564 142.833 461.259 137.335C462.867 124.614 457.652 110.319 442.001 119.174C423.335 129.736 433.87 162.499 435.845 179C436.767 186.706 435.899 199.216 446 200z"/>
<path style="fill:#626561; stroke:none;" d="M453 144L456 145C455.93 138.993 461.752 129.438 458.218 124.193C449.543 111.318 435.755 128.928 435.09 138C434.593 144.778 433.955 153.444 435.943 159.996C436.964 163.364 440.538 165.765 441.127 169.09C441.759 172.662 438.483 176.352 438.275 180C438.108 182.914 438.689 192.731 443.004 192.654C447.217 192.58 448.12 184.917 448.919 182C452.312 169.609 452.451 156.792 453 144z"/>
<path style="fill:#9d9f9c; stroke:none;" d="M444 155L447 155L447 152L448 152L450 157C451.555 151.741 456.634 130.469 453.243 126.448C448.712 121.076 441.15 127.342 439.483 132.001C436.18 141.234 441.273 146.736 444 155z"/>
<path style="fill:#626561; stroke:none;" d="M184 135C182.568 147.456 193.361 138.441 184 135z"/>
<path style="fill:#9d9f9c; stroke:none;" d="M235 141L225 141L226 136L224 136L223 141L222 141L212 136L213 143L222 144C222 150.781 221.023 159.508 225.418 165.292C232.006 173.961 245.721 175.524 253.165 183.579C261.307 192.389 266.11 205.577 277.015 210.905C287.895 216.221 303.264 213.708 312.352 223.419C322.689 234.466 317.741 251.826 318.13 265C318.311 271.129 321.848 276.67 322.059 282.714C322.216 287.181 319.923 291.682 319 296C331.172 294.782 326.044 287.825 331.662 280.96C335.455 276.325 341.015 274.741 343.9 268.999C346.566 263.692 349.559 251.854 348.61 246C347.908 241.663 344.449 237.24 344.197 233.08C344.015 230.087 346.586 227.09 346.895 223.999C347.585 217.089 345.848 210.775 345.171 204C344.237 194.66 348.578 183.346 342.08 175.225C332.572 163.338 313.829 169.064 302.054 164.397C296.791 162.31 296.403 154.93 289.996 154.514C280.922 153.924 272.776 160.449 263.996 159.365C252.144 157.901 254.739 142.685 248.096 137.032C243.23 132.892 236.284 134.982 235 141z"/>
<path style="fill:#343733; stroke:none;" d="M0 136L0 155L1 155C4.7704 148.748 7.64049 140.557 0 136z"/>
<path style="fill:#eef0ed; stroke:none;" d="M384 136L384 140L385 140L384 136z"/>
<path style="fill:#9d9f9c; stroke:none;" d="M206.333 137.667L206.667 138.333L206.333 137.667z"/>
<path style="fill:#050705; stroke:none;" d="M460 137L460 140L462 140L462 137L460 137z"/>
<path style="fill:#626561; stroke:none;" d="M0 141L0 144L1 144L0 141M0.333333 145.667L0.666667 146.333L0.333333 145.667M79.9599 149.483C77.121 149.615 72.0217 149.314 69.652 151.028C66.9823 152.959 66.7728 157.159 65.6644 160C61.704 170.15 62.7602 179.474 76.9568 178.367C87.3553 177.555 91.4657 148.947 79.9599 149.483M237 154L238 155L237 154z"/>
<path style="fill:#9d9f9c; stroke:none;" d="M75 161L72 160L72 165C68.1485 166.184 67.5252 168.139 67 172L78 173L81 159C78.2151 158.855 75.4446 157.739 75 161z"/>
<path style="fill:#626561; stroke:none;" d="M327 229L337 222C340.788 211.684 346.625 188.066 339.991 178.108C332.002 166.115 309.988 170.898 298 168.66C290.397 167.241 285.863 165.013 278 167.125C269.544 169.396 260.425 165.541 252 164.424C249.631 164.11 243.716 162.942 242.832 166.279C240.738 174.183 258.874 176.24 262.397 179.738C269.114 186.407 265.522 199.319 275.093 206.031C291.842 217.776 324.536 198.877 327 229z"/>
<path style="fill:#343733; stroke:none;" d="M267 175C268.481 181.219 266.85 188.086 269.403 194C281.012 220.89 309.949 199.254 328 213C339.305 209.866 346.411 184.949 335.852 176.97C330.17 172.677 320.845 172.011 314 172C299.286 171.976 280.767 168.373 267 175z"/>
<path style="fill:#050705; stroke:none;" d="M291 174.464C286.166 175.318 278.03 176.136 274.303 179.514C266.381 186.695 274.056 199.436 281.015 203.89C289.842 209.541 299.447 205.304 309 206.171C314.776 206.695 322.284 209.829 327.961 208.388C336.642 206.184 342.19 184.851 334.566 179.14C325.247 172.159 301.943 172.53 291 174.464z"/>
<path style="fill:#9d9f9c; stroke:none;" d="M444 176C441.819 180.874 439.49 184.62 445 188L444 176z"/>
<path style="fill:#626561; stroke:none;" d="M88 189L90 191L90 189L88 189M112.019 207.742C98.6881 213.038 110.194 224.788 115.561 230.01C126.215 240.377 145.539 253.941 161.721 248.088C168.883 245.498 165.272 230.334 166.843 225C167.801 221.745 170.916 217.56 167.642 214.603C164.011 211.325 156.477 213.379 152 212.815C140.019 211.304 124.468 202.796 112.019 207.742z"/>
<path style="fill:#9d9f9c; stroke:none;" d="M163 235C158.838 226.552 161.275 227.514 163 219C150.529 216.031 137.702 212.806 125 210.376C120.726 209.558 114.599 209.233 111.742 213.148C105.73 221.387 117.986 224.663 122.985 227.998C127.966 231.32 132.341 237.231 137.996 239.257C143.682 241.293 157.384 237.103 163 235z"/>
<path style="fill:#eef0ed; stroke:none;" d="M304 216L305 217L304 216z"/>
<path style="fill:#626561; stroke:none;" d="M328.667 231.333L329.333 231.667L328.667 231.333M334 255L336 256C338.475 251.499 339.827 247.805 336.867 243.09C335.014 240.14 330.094 234.22 327.027 239.167C323.968 244.104 324.116 261.588 326.742 266.677C329.087 271.225 333.012 265.826 333.4 262.995C333.769 260.31 333.483 257.708 334 255z"/>
<path style="fill:#eef0ed; stroke:none;" d="M324 282L324 285L326 285L326 282L324 282M282 341C282 345.386 280.967 350.385 285 353L284 341L282 341z"/>
<path style="fill:#343733; stroke:none;" d="M120 347L120 352L121 352L120 347z"/>
<path style="fill:#626561; stroke:none;" d="M141 352L142 353L141 352M148 352L149 354L150 354L151 352L148 352z"/>
<path style="fill:#050705; stroke:none;" d="M137.667 358.333L138.333 358.667L137.667 358.333z"/>
<path style="fill:#9d9f9c; stroke:none;" d="M82 360C82.0005 364.858 81.0444 372.596 85 376C84.7083 370.279 87.6259 363.733 82 360z"/>
<path style="fill:#626561; stroke:none;" d="M194 368L195 373L196 373L197 368L194 368z"/>
<path style="fill:#9d9f9c; stroke:none;" d="M83 378L83 380L85 380L85 378L83 378M83 384L84 393L85 393L86 384L83 384z"/>
<path style="fill:#343733; stroke:none;" d="M112.333 398.667L112.667 399.333L112.333 398.667M438 400L438 404L440 404L440 400L438 400z"/>
<path style="fill:#9d9f9c; stroke:none;" d="M144 428L142 405C135.261 405.521 129.591 422.344 134.607 427.254C137.006 429.602 141.092 428.359 144 428z"/>
<path style="fill:#626561; stroke:none;" d="M160 406L161 407L160 406z"/>
<path style="fill:#eef0ed; stroke:none;" d="M232 421L231 425L234 424L232 421z"/>
<path style="fill:#343733; stroke:none;" d="M445 448C454.392 442.306 449.162 431.491 462 429L462 424C458.015 423.997 450.561 421.484 447.148 423.132C442.393 425.428 443.93 443.345 445 448z"/>
<path style="fill:#626561; stroke:none;" d="M168 440L169 441L168 440z"/>
<path style="fill:#050705; stroke:none;" d="M118 450L118 456C131.766 464.37 146.898 469 163 469C160.375 464.459 149.022 455.663 144 457C143.181 453.16 140.314 454.039 137.222 452.389C129.116 448.063 127.523 445.599 118 450z"/>
<path style="fill:#626561; stroke:none;" d="M105 469L110 469C110.52 463.632 112.441 457.467 111.512 452.059C110.995 449.044 107.397 447.052 105.024 449.608C101.285 453.635 104.897 464.01 105 469z"/>
<path style="fill:#343733; stroke:none;" d="M445 455L446 456L445 455M444 456L442 469L446 469L444 456z"/>
<path style="fill:#9d9f9c; stroke:none;" d="M166 464L187 466C185.512 457.005 170.923 458.915 166 464z"/>
<path style="fill:#eef0ed; stroke:none;" d="M176 463L176 464L180 464L176 463z"/>
<path style="fill:#9d9f9c; stroke:none;" d="M196 463L190 469L201 469L201 464L196 463z"/>
<path style="fill:#343733; stroke:none;" d="M46 467L49 469L46 467z"/>
</svg>
